<?xml version="1.0" standalone="no"?>
<!DOCTYPE svg PUBLIC "-//W3C//DTD SVG 20010904//EN"
 "http://www.w3.org/TR/2001/REC-SVG-20010904/DTD/svg10.dtd">
<svg version="1.0" xmlns="http://www.w3.org/2000/svg"
 width="388.000000pt" height="388.000000pt" viewBox="0 0 388.000000 388.000000"
 preserveAspectRatio="xMidYMid meet">
<metadata>
Created by potrace 1.14, written by Peter Selinger 2001-2017
</metadata>
<g transform="translate(0.000000,388.000000) scale(0.100000,-0.100000)"
fill="#000000" stroke="none">
<path d="M2273 3813 c-16 -6 -17 -29 -3 -38 13 -8 40 13 40 31 0 14 -14 17
-37 7z"/>
<path d="M2339 3736 c-19 -11 -56 -33 -84 -51 -27 -18 -75 -44 -105 -59 -63
-30 -127 -75 -209 -144 -31 -26 -90 -73 -131 -103 -41 -31 -201 -182 -355
-337 -202 -202 -289 -282 -310 -287 -17 -4 -65 -18 -107 -31 -53 -18 -87 -23
-111 -19 -66 13 -337 -96 -337 -134 0 -5 -21 -12 -46 -16 -38 -5 -58 -17 -109
-65 -61 -57 -172 -143 -197 -154 -9 -3 -8 -9 6 -20 17 -14 23 -12 75 24 32 22
92 71 135 109 69 62 83 70 129 76 29 4 81 2 117 -4 36 -6 115 -11 176 -11 72
0 114 -4 122 -12 18 -18 15 -25 -13 -32 -14 -4 -25 -10 -25 -14 0 -9 69 1 150
20 133 31 157 37 179 44 l24 7 -6 -63 c-8 -70 -12 -79 -29 -62 -23 23 -45 11
-91 -48 -54 -68 -114 -116 -160 -125 -18 -4 -50 -13 -72 -20 -22 -7 -93 -21
-158 -31 -64 -10 -121 -20 -125 -23 -4 -4 -19 -24 -32 -46 -14 -22 -40 -57
-58 -78 -28 -30 -33 -42 -27 -65 4 -15 9 -55 12 -88 4 -49 0 -70 -16 -102 -11
-22 -30 -68 -42 -103 -12 -35 -28 -73 -35 -84 -15 -24 -64 -200 -64 -232 0
-12 -6 -37 -14 -55 -18 -43 -90 -271 -117 -373 -12 -44 -26 -118 -30 -165 -13
-134 -27 -243 -34 -267 -4 -13 1 -39 14 -68 13 -29 21 -69 21 -101 0 -30 9
-78 21 -110 21 -56 21 -68 3 -167 -6 -36 -6 -37 25 -37 33 0 43 13 55 73 6 25
10 27 52 27 l46 0 -4 -32 c-3 -18 -8 -41 -13 -50 -5 -14 -2 -18 14 -18 20 0
24 8 47 103 4 17 29 45 69 77 35 28 72 65 84 83 111 173 89 160 266 152 83 -4
188 -15 235 -25 47 -10 117 -22 155 -25 108 -11 105 -7 105 -141 0 -76 5 -135
16 -170 l15 -54 92 0 92 0 -3 78 c-2 42 -7 90 -13 106 -13 42 -11 102 5 115 9
8 22 8 43 0 23 -8 49 -37 102 -117 39 -59 82 -124 96 -145 l25 -37 130 0 c80
0 130 4 130 10 0 6 9 10 20 10 11 0 20 -4 20 -10 0 -6 33 -10 79 -10 66 0 80
3 85 17 4 10 11 92 17 183 9 150 28 536 30 585 0 11 -9 63 -20 115 -15 70 -20
134 -20 245 l-1 149 78 74 c42 41 95 87 117 103 22 15 60 56 85 90 25 34 59
75 76 93 17 17 41 49 53 70 12 22 38 56 57 75 18 20 54 60 80 89 50 56 78 65
88 30 18 -69 -6 -310 -42 -411 -23 -66 -77 -133 -139 -177 -71 -49 -104 -98
-94 -142 4 -18 15 -47 24 -65 10 -18 17 -41 17 -52 0 -24 54 -71 81 -71 11 0
33 7 48 14 15 8 37 12 49 9 16 -4 35 7 72 39 30 27 72 51 103 61 29 9 60 22
70 29 15 12 45 108 61 203 4 22 18 58 31 80 12 22 26 55 30 72 8 39 8 39 66
48 l47 7 41 -58 c23 -32 46 -76 52 -98 6 -23 15 -49 20 -58 15 -30 10 -87 -13
-131 -20 -39 -21 -57 -22 -279 l-1 -236 -38 -38 c-44 -44 -52 -69 -38 -108 17
-42 14 -71 -18 -175 -17 -53 -35 -126 -41 -164 -7 -37 -25 -101 -40 -143 l-28
-75 46 3 c44 3 47 5 78 58 18 30 30 58 27 62 -2 5 -17 8 -34 8 -16 0 -29 5
-29 13 0 10 17 68 80 273 13 40 13 110 -1 135 -14 27 -5 50 39 93 l37 38 -2
111 c-3 125 28 423 52 519 16 61 16 63 -6 107 -12 25 -30 66 -40 91 -14 38
-22 45 -47 48 -20 2 -33 11 -41 29 -12 27 -7 27 -98 6 -16 -4 -23 -1 -23 10 0
18 30 100 59 162 11 22 27 83 37 135 26 145 91 430 109 480 9 25 20 74 25 110
5 45 21 94 52 160 25 52 62 149 83 215 20 66 49 161 65 210 48 148 92 337 82
347 -6 6 -24 2 -48 -10 -22 -11 -61 -23 -89 -26 -50 -8 -191 -52 -210 -66 -5
-4 -28 -13 -50 -20 -22 -7 -62 -24 -90 -38 -27 -13 -68 -28 -90 -32 -65 -12
-136 -31 -200 -53 -33 -11 -80 -21 -105 -20 -66 0 -194 20 -280 43 -41 11
-111 25 -155 30 -44 6 -86 12 -92 15 -17 6 -16 70 2 131 8 27 19 90 25 139 6
50 15 108 20 130 5 22 10 55 10 72 l0 33 -53 -3 c-30 -1 -69 -10 -88 -21z
m-456 -720 c18 -7 44 -26 60 -41 24 -24 27 -36 27 -89 0 -42 -5 -69 -17 -86
-10 -14 -25 -38 -33 -54 -18 -36 -68 -56 -160 -65 l-65 -6 -3 -46 c-4 -63 -48
-106 -112 -111 -38 -3 -46 0 -58 22 -13 23 -11 31 21 101 23 48 34 84 30 98
-8 31 15 140 37 176 20 33 78 80 87 71 3 -3 -2 -17 -11 -31 -9 -14 -20 -47
-23 -74 -5 -43 -2 -51 27 -84 30 -35 36 -37 89 -37 49 0 61 4 82 26 19 20 24
36 24 79 0 69 -34 110 -101 120 -24 3 -44 10 -44 14 0 31 85 42 143 17z m858
-257 c77 -17 99 -43 99 -119 0 -33 -6 -75 -14 -93 -20 -48 -145 -147 -186
-147 -13 0 -74 -60 -89 -88 -14 -26 -76 -45 -102 -31 -25 13 -24 49 2 109 19
45 20 50 5 78 -21 40 -20 114 0 155 22 44 74 97 95 97 9 0 19 7 22 15 6 15 55
32 94 34 12 1 45 -4 74 -10z m-1661 -84 c0 -8 -6 -15 -14 -15 -17 0 -28 14
-19 24 12 12 33 6 33 -9z m-37 -55 c43 -27 47 -33 47 -70 0 -42 -17 -53 -39
-27 -7 10 -48 16 -123 20 -140 8 -218 18 -218 27 0 10 220 78 256 79 17 1 50
-12 77 -29z m216 -298 c-6 -10 -21 -25 -33 -32 -20 -12 -20 -12 -6 6 30 40 43
54 47 50 3 -2 -1 -13 -8 -24z"/>
<path d="M2599 2723 c-19 -3 -35 -20 -62 -66 -66 -111 -45 -157 71 -157 66 0
92 9 130 43 30 28 28 65 -9 121 -43 64 -56 70 -130 59z"/>
<path d="M1753 3663 c-48 -51 -52 -63 -21 -63 21 0 108 80 108 100 0 25 -48 5
-87 -37z"/>
<path d="M2618 3689 c-18 -10 -68 -105 -68 -127 0 -18 25 -14 43 6 9 10 22 32
28 50 6 17 20 34 30 37 23 8 22 38 -1 42 -8 2 -23 -2 -32 -8z"/>
<path d="M3736 3589 c-27 -16 -3 -29 56 -29 37 0 50 -4 58 -20 17 -32 30 -23
30 20 l0 40 -62 0 c-35 0 -71 -5 -82 -11z"/>
<path d="M2750 3345 c0 -9 7 -18 15 -21 23 -9 45 3 39 21 -8 20 -54 20 -54 0z"/>
<path d="M1432 3309 c-42 -27 -79 -86 -63 -102 8 -8 24 1 61 38 48 47 59 68
42 79 -4 2 -22 -4 -40 -15z"/>
<path d="M1222 3070 c-27 -31 -42 -57 -38 -66 4 -11 10 -12 24 -5 31 16 83 82
80 99 -6 29 -23 22 -66 -28z"/>
<path d="M3835 2862 c-7 -23 4 -54 16 -46 12 7 12 51 0 59 -5 3 -12 -3 -16
-13z"/>
<path d="M3685 2369 c-5 -13 -9 -49 -10 -79 -2 -30 -8 -56 -14 -58 -21 -7 -11
-32 13 -32 23 0 24 4 31 86 4 54 3 90 -3 96 -7 7 -13 2 -17 -13z"/>
<path d="M195 2230 c-10 -19 -33 -84 -51 -145 -53 -178 -115 -335 -136 -343
-4 -2 -8 -35 -8 -73 0 -44 4 -68 10 -64 5 3 10 14 10 24 0 10 19 62 41 117
114 273 176 466 161 498 -8 20 -10 19 -27 -14z"/>
<path d="M3454 1727 c-9 -24 6 -44 18 -22 7 11 6 21 -1 28 -7 7 -12 6 -17 -6z"/>
<path d="M1162 293 c2 -10 10 -18 18 -18 8 0 16 8 18 18 2 12 -3 17 -18 17
-15 0 -20 -5 -18 -17z"/>
<path d="M872 289 c-42 -16 -20 -34 39 -31 56 3 76 13 65 31 -9 13 -72 13
-104 0z"/>
<path d="M1264 165 c-4 -8 -3 -23 0 -32 6 -15 8 -15 16 -3 13 20 12 50 0 50
-6 0 -13 -7 -16 -15z"/>
</g>
</svg>
